<svg width="100" height="40" viewBox="0 0 100 40" fill="none" xmlns="http://www.w3.org/2000/svg">
<path d="M84.7479 20.0008L99.6044 5.14428C100.132 4.6167 100.132 3.76295 99.6044 3.23554L96.7651 0.395012C96.5122 0.142291 96.1691 0 95.8109 0C95.4526 0 95.1095 0.142291 94.8566 0.395012L80 15.2527L65.1435 0.395012C64.8906 0.142291 64.5474 0 64.1892 0C63.831 0 63.4878 0.142291 63.235 0.395012L60.3957 3.23554C59.8681 3.76295 59.8681 4.6167 60.3957 5.14428L75.2522 20.0009L60.3971 34.8557C59.8698 35.3833 59.8698 36.237 60.3971 36.7645L63.2366 39.605C63.4893 39.8577 63.8326 40 64.1908 40C64.5491 40 64.8923 39.8577 65.1452 39.605L79.9999 24.749L94.8548 39.605C95.1076 39.8577 95.4508 40 95.8091 40C96.1674 40 96.5106 39.8577 96.7633 39.605L99.6028 36.7645C100.13 36.237 100.13 35.3833 99.6028 34.8557L84.7479 20.0008Z" fill="black"/>
<g clip-path="url(#clip0_6_2)">
<path d="M36 4H4C1.79086 4 0 5.79086 0 8C0 10.2091 1.79086 12 4 12H36C38.2091 12 40 10.2091 40 8C40 5.79086 38.2091 4 36 4Z" fill="black"/>
<path d="M36 16H4C1.79086 16 0 17.7909 0 20C0 22.2091 1.79086 24 4 24H36C38.2091 24 40 22.2091 40 20C40 17.7909 38.2091 16 36 16Z" fill="black"/>
<path d="M36 28H4C1.79086 28 0 29.7909 0 32C0 34.2091 1.79086 36 4 36H36C38.2091 36 40 34.2091 40 32C40 29.7909 38.2091 28 36 28Z" fill="black"/>
</g>
<defs>
<clipPath id="clip0_6_2">
<rect width="40" height="40" fill="white"/>
</clipPath>
</defs>
</svg>
