<svg width="117" height="12" viewBox="0 0 117 12" fill="none" xmlns="http://www.w3.org/2000/svg">

<path d="M0.806818 0.272727H2.01705L4.4375 4.34659H4.53977L6.96023 0.272727H8.17045L5.01705 5.40341V9H3.96023V5.40341L0.806818 0.272727ZM11.1342 9.13636C10.5433 9.13636 10.0249 8.99574 9.57884 8.71449C9.13565 8.43324 8.78906 8.03977 8.53906 7.53409C8.2919 7.02841 8.16832 6.4375 8.16832 5.76136C8.16832 5.07955 8.2919 4.48437 8.53906 3.97585C8.78906 3.46733 9.13565 3.07244 9.57884 2.79119C10.0249 2.50994 10.5433 2.36932 11.1342 2.36932C11.7251 2.36932 12.2422 2.50994 12.6854 2.79119C13.1314 3.07244 13.478 3.46733 13.7251 3.97585C13.9751 4.48437 14.1001 5.07955 14.1001 5.76136C14.1001 6.4375 13.9751 7.02841 13.7251 7.53409C13.478 8.03977 13.1314 8.43324 12.6854 8.71449C12.2422 8.99574 11.7251 9.13636 11.1342 9.13636ZM11.1342 8.23295C11.5831 8.23295 11.9524 8.1179 12.2422 7.88778C12.532 7.65767 12.7464 7.35511 12.8857 6.98011C13.0249 6.60511 13.0945 6.19886 13.0945 5.76136C13.0945 5.32386 13.0249 4.91619 12.8857 4.53835C12.7464 4.16051 12.532 3.85511 12.2422 3.62216C11.9524 3.3892 11.5831 3.27273 11.1342 3.27273C10.6854 3.27273 10.3161 3.3892 10.0263 3.62216C9.73651 3.85511 9.52202 4.16051 9.38281 4.53835C9.24361 4.91619 9.17401 5.32386 9.17401 5.76136C9.17401 6.19886 9.24361 6.60511 9.38281 6.98011C9.52202 7.35511 9.73651 7.65767 10.0263 7.88778C10.3161 8.1179 10.6854 8.23295 11.1342 8.23295ZM19.7603 6.32386V2.45455H20.766V9H19.7603V7.89205H19.6921C19.5387 8.22443 19.3001 8.5071 18.9762 8.74006C18.6523 8.97017 18.2433 9.08523 17.7489 9.08523C17.3398 9.08523 16.9762 8.99574 16.658 8.81676C16.3398 8.63494 16.0898 8.36222 15.908 7.99858C15.7262 7.6321 15.6353 7.17045 15.6353 6.61364V2.45455H16.641V6.54545C16.641 7.02273 16.7745 7.40341 17.0415 7.6875C17.3114 7.97159 17.6552 8.11364 18.0728 8.11364C18.3228 8.11364 18.5771 8.04972 18.8356 7.92188C19.0969 7.79403 19.3157 7.59801 19.4918 7.33381C19.6708 7.0696 19.7603 6.73295 19.7603 6.32386ZM28.4545 9.13636C27.9091 9.13636 27.4276 8.99858 27.0099 8.72301C26.5923 8.4446 26.2656 8.05256 26.0298 7.54688C25.794 7.03835 25.6761 6.4375 25.6761 5.74432C25.6761 5.05682 25.794 4.46023 26.0298 3.95455C26.2656 3.44886 26.5938 3.05824 27.0142 2.78267C27.4347 2.5071 27.9205 2.36932 28.4716 2.36932C28.8977 2.36932 29.2344 2.44034 29.4815 2.58239C29.7315 2.72159 29.9219 2.88068 30.0526 3.05966C30.1861 3.2358 30.2898 3.38068 30.3636 3.49432H30.4489V0.272727H31.4545V9H30.483V7.99432H30.3636C30.2898 8.11364 30.1847 8.2642 30.0483 8.44602C29.9119 8.625 29.7173 8.78551 29.4645 8.92756C29.2116 9.06676 28.875 9.13636 28.4545 9.13636ZM28.5909 8.23295C28.9943 8.23295 29.3352 8.12784 29.6136 7.91761C29.892 7.70455 30.1037 7.41051 30.2486 7.03551C30.3935 6.65767 30.4659 6.22159 30.4659 5.72727C30.4659 5.23864 30.3949 4.81108 30.2528 4.4446C30.1108 4.07528 29.9006 3.78835 29.6222 3.58381C29.3438 3.37642 29 3.27273 28.5909 3.27273C28.1648 3.27273 27.8097 3.3821 27.5256 3.60085C27.2443 3.81676 27.0327 4.1108 26.8906 4.48295C26.7514 4.85227 26.6818 5.26705 26.6818 5.72727C26.6818 6.19318 26.7528 6.61648 26.8949 6.99716C27.0398 7.375 27.2528 7.67614 27.5341 7.90057C27.8182 8.12216 28.1705 8.23295 28.5909 8.23295ZM36.0952 9.13636C35.5043 9.13636 34.9858 8.99574 34.5398 8.71449C34.0966 8.43324 33.75 8.03977 33.5 7.53409C33.2528 7.02841 33.1293 6.4375 33.1293 5.76136C33.1293 5.07955 33.2528 4.48437 33.5 3.97585C33.75 3.46733 34.0966 3.07244 34.5398 2.79119C34.9858 2.50994 35.5043 2.36932 36.0952 2.36932C36.6861 2.36932 37.2031 2.50994 37.6463 2.79119C38.0923 3.07244 38.4389 3.46733 38.6861 3.97585C38.9361 4.48437 39.0611 5.07955 39.0611 5.76136C39.0611 6.4375 38.9361 7.02841 38.6861 7.53409C38.4389 8.03977 38.0923 8.43324 37.6463 8.71449C37.2031 8.99574 36.6861 9.13636 36.0952 9.13636ZM36.0952 8.23295C36.544 8.23295 36.9134 8.1179 37.2031 7.88778C37.4929 7.65767 37.7074 7.35511 37.8466 6.98011C37.9858 6.60511 38.0554 6.19886 38.0554 5.76136C38.0554 5.32386 37.9858 4.91619 37.8466 4.53835C37.7074 4.16051 37.4929 3.85511 37.2031 3.62216C36.9134 3.3892 36.544 3.27273 36.0952 3.27273C35.6463 3.27273 35.277 3.3892 34.9872 3.62216C34.6974 3.85511 34.483 4.16051 34.3438 4.53835C34.2045 4.91619 34.1349 5.32386 34.1349 5.76136C34.1349 6.19886 34.2045 6.60511 34.3438 6.98011C34.483 7.35511 34.6974 7.65767 34.9872 7.88778C35.277 8.1179 35.6463 8.23295 36.0952 8.23295ZM41.6019 5.0625V9H40.5962V2.45455H41.5678V3.47727H41.6531C41.8065 3.14489 42.0394 2.87784 42.3519 2.67614C42.6644 2.47159 43.0678 2.36932 43.5621 2.36932C44.0053 2.36932 44.3931 2.46023 44.7255 2.64205C45.0579 2.82102 45.3164 3.09375 45.5011 3.46023C45.6857 3.82386 45.7781 4.28409 45.7781 4.84091V9H44.7724V4.90909C44.7724 4.39489 44.6388 3.99432 44.3718 3.70739C44.1048 3.41761 43.7383 3.27273 43.2724 3.27273C42.9513 3.27273 42.6644 3.34233 42.4116 3.48153C42.1616 3.62074 41.9641 3.82386 41.8192 4.09091C41.6744 4.35795 41.6019 4.68182 41.6019 5.0625ZM48.4851 0.272727V3.27273H47.5476V0.272727H48.4851ZM53.1225 2.45455V3.30682H49.7305V2.45455H53.1225ZM50.7191 0.886364H51.7248V7.125C51.7248 7.40909 51.766 7.62216 51.8484 7.7642C51.9336 7.90341 52.0415 7.99716 52.1722 8.04545C52.3058 8.09091 52.4464 8.11364 52.5941 8.11364C52.7049 8.11364 52.7958 8.10795 52.8668 8.09659C52.9379 8.08239 52.9947 8.07102 53.0373 8.0625L53.2418 8.96591C53.1737 8.99148 53.0785 9.01705 52.9563 9.04261C52.8342 9.07102 52.6793 9.08523 52.4918 9.08523C52.2077 9.08523 51.9293 9.02415 51.6566 8.90199C51.3867 8.77983 51.1623 8.59375 50.9833 8.34375C50.8072 8.09375 50.7191 7.77841 50.7191 7.39773V0.886364ZM60.4819 9.13636C59.9364 9.13636 59.4549 8.99858 59.0373 8.72301C58.6197 8.4446 58.293 8.05256 58.0572 7.54688C57.8214 7.03835 57.7035 6.4375 57.7035 5.74432C57.7035 5.05682 57.8214 4.46023 58.0572 3.95455C58.293 3.44886 58.6211 3.05824 59.0415 2.78267C59.462 2.5071 59.9478 2.36932 60.4989 2.36932C60.9251 2.36932 61.2617 2.44034 61.5089 2.58239C61.7589 2.72159 61.9492 2.88068 62.0799 3.05966C62.2134 3.2358 62.3171 3.38068 62.391 3.49432H62.4762V0.272727H63.4819V9H62.5103V7.99432H62.391C62.3171 8.11364 62.212 8.2642 62.0756 8.44602C61.9393 8.625 61.7447 8.78551 61.4918 8.92756C61.239 9.06676 60.9023 9.13636 60.4819 9.13636ZM60.6183 8.23295C61.0217 8.23295 61.3626 8.12784 61.641 7.91761C61.9194 7.70455 62.131 7.41051 62.2759 7.03551C62.4208 6.65767 62.4933 6.22159 62.4933 5.72727C62.4933 5.23864 62.4222 4.81108 62.2802 4.4446C62.1381 4.07528 61.9279 3.78835 61.6495 3.58381C61.3711 3.37642 61.0273 3.27273 60.6183 3.27273C60.1921 3.27273 59.837 3.3821 59.5529 3.60085C59.2717 3.81676 59.06 4.1108 58.918 4.48295C58.7788 4.85227 58.7092 5.26705 58.7092 5.72727C58.7092 6.19318 58.7802 6.61648 58.9222 6.99716C59.0671 7.375 59.2802 7.67614 59.5614 7.90057C59.8455 8.12216 60.1978 8.23295 60.6183 8.23295ZM68.1225 9.13636C67.5316 9.13636 67.0131 8.99574 66.5671 8.71449C66.1239 8.43324 65.7773 8.03977 65.5273 7.53409C65.2802 7.02841 65.1566 6.4375 65.1566 5.76136C65.1566 5.07955 65.2802 4.48437 65.5273 3.97585C65.7773 3.46733 66.1239 3.07244 66.5671 2.79119C67.0131 2.50994 67.5316 2.36932 68.1225 2.36932C68.7134 2.36932 69.2305 2.50994 69.6737 2.79119C70.1197 3.07244 70.4663 3.46733 70.7134 3.97585C70.9634 4.48437 71.0884 5.07955 71.0884 5.76136C71.0884 6.4375 70.9634 7.02841 70.7134 7.53409C70.4663 8.03977 70.1197 8.43324 69.6737 8.71449C69.2305 8.99574 68.7134 9.13636 68.1225 9.13636ZM68.1225 8.23295C68.5714 8.23295 68.9407 8.1179 69.2305 7.88778C69.5202 7.65767 69.7347 7.35511 69.8739 6.98011C70.0131 6.60511 70.0827 6.19886 70.0827 5.76136C70.0827 5.32386 70.0131 4.91619 69.8739 4.53835C69.7347 4.16051 69.5202 3.85511 69.2305 3.62216C68.9407 3.3892 68.5714 3.27273 68.1225 3.27273C67.6737 3.27273 67.3043 3.3892 67.0146 3.62216C66.7248 3.85511 66.5103 4.16051 66.3711 4.53835C66.2319 4.91619 66.1623 5.32386 66.1623 5.76136C66.1623 6.19886 66.2319 6.60511 66.3711 6.98011C66.5103 7.35511 66.7248 7.65767 67.0146 7.88778C67.3043 8.1179 67.6737 8.23295 68.1225 8.23295ZM78.7429 9.13636C78.1122 9.13636 77.5682 8.99716 77.1108 8.71875C76.6562 8.4375 76.3054 8.04545 76.0582 7.54261C75.8139 7.03693 75.6918 6.44886 75.6918 5.77841C75.6918 5.10795 75.8139 4.51705 76.0582 4.00568C76.3054 3.49148 76.6491 3.09091 77.0895 2.80398C77.5327 2.5142 78.0497 2.36932 78.6406 2.36932C78.9815 2.36932 79.3182 2.42614 79.6506 2.53977C79.983 2.65341 80.2855 2.83807 80.5582 3.09375C80.831 3.34659 81.0483 3.68182 81.2102 4.09943C81.3722 4.51705 81.4531 5.03125 81.4531 5.64205V6.06818H76.4077V5.19886H80.4304C80.4304 4.82955 80.3565 4.5 80.2088 4.21023C80.0639 3.92045 79.8565 3.69176 79.5866 3.52415C79.3196 3.35653 79.0043 3.27273 78.6406 3.27273C78.2401 3.27273 77.8935 3.37216 77.6009 3.57102C77.3111 3.76705 77.0881 4.02273 76.9318 4.33807C76.7756 4.65341 76.6974 4.99148 76.6974 5.35227V5.93182C76.6974 6.42614 76.7827 6.84517 76.9531 7.18892C77.1264 7.52983 77.3665 7.78977 77.6733 7.96875C77.9801 8.14489 78.3366 8.23295 78.7429 8.23295C79.0071 8.23295 79.2457 8.19602 79.4588 8.12216C79.6747 8.04545 79.8608 7.93182 80.017 7.78125C80.1733 7.62784 80.294 7.4375 80.3793 7.21023L81.3509 7.48295C81.2486 7.8125 81.0767 8.10227 80.8352 8.35227C80.5938 8.59943 80.2955 8.79261 79.9403 8.93182C79.5852 9.06818 79.1861 9.13636 78.7429 9.13636ZM83.9886 5.0625V9H82.983V2.45455H83.9545V3.47727H84.0398C84.1932 3.14489 84.4261 2.87784 84.7386 2.67614C85.0511 2.47159 85.4545 2.36932 85.9489 2.36932C86.392 2.36932 86.7798 2.46023 87.1122 2.64205C87.4446 2.82102 87.7031 3.09375 87.8878 3.46023C88.0724 3.82386 88.1648 4.28409 88.1648 4.84091V9H87.1591V4.90909C87.1591 4.39489 87.0256 3.99432 86.7585 3.70739C86.4915 3.41761 86.125 3.27273 85.6591 3.27273C85.3381 3.27273 85.0511 3.34233 84.7983 3.48153C84.5483 3.62074 84.3509 3.82386 84.206 4.09091C84.0611 4.35795 83.9886 4.68182 83.9886 5.0625ZM92.6616 9.13636C92.0707 9.13636 91.5522 8.99574 91.1062 8.71449C90.663 8.43324 90.3164 8.03977 90.0664 7.53409C89.8192 7.02841 89.6957 6.4375 89.6957 5.76136C89.6957 5.07955 89.8192 4.48437 90.0664 3.97585C90.3164 3.46733 90.663 3.07244 91.1062 2.79119C91.5522 2.50994 92.0707 2.36932 92.6616 2.36932C93.2525 2.36932 93.7695 2.50994 94.2127 2.79119C94.6587 3.07244 95.0053 3.46733 95.2525 3.97585C95.5025 4.48437 95.6275 5.07955 95.6275 5.76136C95.6275 6.4375 95.5025 7.02841 95.2525 7.53409C95.0053 8.03977 94.6587 8.43324 94.2127 8.71449C93.7695 8.99574 93.2525 9.13636 92.6616 9.13636ZM92.6616 8.23295C93.1104 8.23295 93.4798 8.1179 93.7695 7.88778C94.0593 7.65767 94.2738 7.35511 94.413 6.98011C94.5522 6.60511 94.6218 6.19886 94.6218 5.76136C94.6218 5.32386 94.5522 4.91619 94.413 4.53835C94.2738 4.16051 94.0593 3.85511 93.7695 3.62216C93.4798 3.3892 93.1104 3.27273 92.6616 3.27273C92.2127 3.27273 91.8434 3.3892 91.5536 3.62216C91.2638 3.85511 91.0494 4.16051 90.9102 4.53835C90.771 4.91619 90.7013 5.32386 90.7013 5.76136C90.7013 6.19886 90.771 6.60511 90.9102 6.98011C91.0494 7.35511 91.2638 7.65767 91.5536 7.88778C91.8434 8.1179 92.2127 8.23295 92.6616 8.23295ZM101.288 6.32386V2.45455H102.293V9H101.288V7.89205H101.219C101.066 8.22443 100.827 8.5071 100.504 8.74006C100.18 8.97017 99.7706 9.08523 99.2763 9.08523C98.8672 9.08523 98.5036 8.99574 98.1854 8.81676C97.8672 8.63494 97.6172 8.36222 97.4354 7.99858C97.2536 7.6321 97.1626 7.17045 97.1626 6.61364V2.45455H98.1683V6.54545C98.1683 7.02273 98.3018 7.40341 98.5689 7.6875C98.8388 7.97159 99.1825 8.11364 99.6001 8.11364C99.8501 8.11364 100.104 8.04972 100.363 7.92188C100.624 7.79403 100.843 7.59801 101.019 7.33381C101.198 7.0696 101.288 6.73295 101.288 6.32386ZM106.777 11.5909C106.292 11.5909 105.874 11.5284 105.525 11.4034C105.175 11.2812 104.884 11.1193 104.651 10.9176C104.421 10.7188 104.238 10.5057 104.101 10.2784L104.902 9.71591C104.993 9.83523 105.108 9.97159 105.248 10.125C105.387 10.2812 105.577 10.4162 105.819 10.5298C106.063 10.6463 106.382 10.7045 106.777 10.7045C107.306 10.7045 107.742 10.5767 108.086 10.321C108.429 10.0653 108.601 9.66477 108.601 9.11932V7.78977H108.516C108.442 7.90909 108.337 8.05682 108.201 8.23295C108.067 8.40625 107.874 8.56108 107.621 8.69744C107.371 8.83097 107.033 8.89773 106.607 8.89773C106.078 8.89773 105.604 8.77273 105.184 8.52273C104.766 8.27273 104.435 7.90909 104.191 7.43182C103.949 6.95455 103.828 6.375 103.828 5.69318C103.828 5.02273 103.946 4.43892 104.182 3.94176C104.418 3.44176 104.746 3.0554 105.167 2.78267C105.587 2.5071 106.073 2.36932 106.624 2.36932C107.05 2.36932 107.388 2.44034 107.638 2.58239C107.891 2.72159 108.084 2.88068 108.218 3.05966C108.354 3.2358 108.459 3.38068 108.533 3.49432H108.635V2.45455H109.607V9.1875C109.607 9.75 109.479 10.2074 109.223 10.5597C108.971 10.9148 108.63 11.1747 108.201 11.3395C107.775 11.5071 107.3 11.5909 106.777 11.5909ZM106.743 7.99432C107.147 7.99432 107.488 7.90199 107.766 7.71733C108.044 7.53267 108.256 7.26705 108.401 6.92045C108.546 6.57386 108.618 6.15909 108.618 5.67614C108.618 5.20455 108.547 4.78835 108.405 4.42756C108.263 4.06676 108.053 3.78409 107.775 3.57955C107.496 3.375 107.152 3.27273 106.743 3.27273C106.317 3.27273 105.962 3.38068 105.678 3.59659C105.397 3.8125 105.185 4.10227 105.043 4.46591C104.904 4.82955 104.834 5.23295 104.834 5.67614C104.834 6.13068 104.905 6.53267 105.047 6.8821C105.192 7.22869 105.405 7.50142 105.686 7.70028C105.971 7.89631 106.323 7.99432 106.743 7.99432ZM112.453 5.0625V9H111.448V0.272727H112.453V3.47727H112.539C112.692 3.1392 112.922 2.87074 113.229 2.67188C113.539 2.47017 113.951 2.36932 114.465 2.36932C114.911 2.36932 115.301 2.45881 115.637 2.63778C115.972 2.81392 116.232 3.08523 116.417 3.4517C116.604 3.81534 116.698 4.27841 116.698 4.84091V9H115.692V4.90909C115.692 4.3892 115.557 3.98722 115.287 3.70312C115.02 3.41619 114.65 3.27273 114.175 3.27273C113.846 3.27273 113.55 3.34233 113.289 3.48153C113.03 3.62074 112.826 3.82386 112.675 4.09091C112.527 4.35795 112.453 4.68182 112.453 5.0625Z" fill="black"/>
</svg>
