<svg viewBox="0 0 960 960" fill="none" xmlns="http://www.w3.org/2000/svg"><g clip-path="url(#clip0_391_472)"><path d="M426.591 879.981H413.04c-1.288-.194-2.577-.423-3.872-.577-8.02-.96-16.141-1.409-24.054-2.96-18.832-3.678-28.678-16.53-27.188-35.161.604-7.577 1.792-15.121 2.96-22.637 1.758-11.296 3.731-22.564 5.624-33.906-16.913-3.866-33.913-7.759-50.248-11.497-1.067 8.248-1.967 16.537-3.242 24.765-1.517 9.839-2.845 19.752-5.168 29.41-3.503 14.55-11.879 25.308-27.235 28.395-6.328 1.276-13.221 1.524-19.577.497a396.526 396.526 0 01-39.1-8.349c-24.645-6.597-36.578-23.282-35.128-48.731.893-15.698 3.47-31.182 8.101-46.269 2.651-8.637 6.181-16.886 11.114-24.584-.544-.409-.899-.711-1.282-.959-26.175-16.907-46.463-39.524-63.195-65.497-30.745-47.725-46.94-100.269-51.463-156.624-.349-4.383-.725-8.765-1.087-13.141v-25.967c.154-1.006.403-2.013.443-3.027.617-15.147 2.396-30.161 5.268-45.04 7.349-38.06 21.376-73.282 44.557-104.617.692-.933.987-2.624.685-3.752-3.537-13.201-6-26.631-6.745-40.241-.933-16.98-1.369-34-1.436-51.007-.168-40.718 3.973-81.067 11.335-121.1 1.37-7.457 5.698-12.283 12.551-15.048 1.812-.731 3.738-1.174 5.61-1.751h6.772c7.188 1.281 12.282 5.731 16.759 11.107.241.288.51.557.765.825 28.147 29.564 56.288 59.141 84.456 88.692 9.034 9.483 17.839 19.141 24.027 30.825.94 1.772 1.98 1.134 3.248.738 10.752-3.375 21.423-7.013 32.275-10.013 22.336-6.181 45.034-10.423 68.222-11.644 6.101-.322 12.228-.242 18.295-.826 14.685-1.409 29.336-3.161 44.02-4.611 2.182-.214 3.88-.765 5.517-2.248 24.208-21.859 50.792-40.295 79.926-54.993 2.725-1.376 5.745-2.423 8.745-2.953 12.135-2.134 22.41 4.765 24 16.013 2.376 16.752 4.645 33.51 6.88 50.282.214 1.618.859 2.208 2.409 2.477 3.329.577 6.624 1.355 9.926 2.087 40.967 9.06 80.114 23.054 116.839 43.483 43.973 24.456 81.477 56.248 109.899 98.101 26 38.288 41.833 80.308 45.598 126.644.288 3.544.684 7.081 1.033 10.624v23.148c-.55 5.778-1.047 11.564-1.651 17.342-3.496 33.631-12.98 65.53-27.966 95.799-17.947 36.235-42.832 67.094-73.168 93.657-1.725 1.511-2.309 3.027-2.342 5.296-.135 10.154-.202 20.329-.866 30.456-.946 14.45-2.074 28.893-3.718 43.275-1.128 9.859-2.745 19.739-5.101 29.369-2.51 10.242-8.812 17.96-18.725 22.309-6.57 2.879-13.51 3.899-20.617 4.014-14.316.241-28.201-2.772-42.128-5.524-5.711-1.127-9.604-4.45-11.282-9.859-1.006-3.248-1.476-6.839-1.308-10.235.382-7.691 1.423-15.349 1.993-23.04.544-7.289.826-14.604 1.248-22.269-6.174 2.376-12.04 4.584-17.845 6.933-.544.222-.967 1.296-1.041 2.014-1.04 10.758-1.865 21.543-3.047 32.288-1.026 9.356-2.664 18.618-6.637 27.269-7.148 15.577-19.094 24.517-36.396 25.067-9.846.309-19.752-.202-29.591-.853-6.946-.456-13.751-2.053-20.006-5.395-7-3.745-11.484-9.47-11.531-17.47-.053-9.564.665-19.141 1.323-28.692.281-4.06 1.268-8.073 1.852-11.61h-71.906c-1.685 11.53-2.987 22.637-5 33.604-1.886 10.255-4.49 20.376-9.483 29.684-4.665 8.692-11.772 14.255-21.383 16.544-2.644.624-5.315 1.101-7.966 1.644zm-38.584-633.818c-2.302-2.094-4.638-4.356-7.134-6.417-.806-.664-2.121-1.281-3.061-1.114-8.315 1.51-16.658 2.96-24.879 4.886-43.94 10.302-84.758 28.054-123.235 51.517-21.309 12.993-39.181 29.463-53.007 50.242-22.416 33.704-32.698 71.281-35.188 111.288-1.785 28.718.651 57.128 6.792 85.215 6.92 31.664 18.208 61.597 36.168 88.752 15.933 24.08 35.772 44.026 61.779 57.281 15.288 7.792 31.523 13.135 47.711 18.658 61.571 21.007 124.571 34.316 189.805 36.074 37.477 1.013 74.631-1.389 111.229-9.919 62.778-14.631 116.396-45.276 159.698-93.121 33.959-37.524 54.691-81.309 59.362-132.134 3.201-34.853-2.094-68.443-15.651-100.665-16.544-39.335-43.268-70.644-76.993-96.241-34.215-25.967-72.651-43.309-113.846-54.86-5.107-1.429-10.262-2.691-15.382-4.026-.759 2.409.067 3.382 2.033 4.067a367.02 367.02 0 0115.577 5.798c26.859 10.698 52.497 23.866 77.349 38.604 4.343 2.578 7.423 6.121 8.161 11.235 1.114 7.705-1.711 13.94-7.939 18.39-6.067 4.342-12.322 3.51-18.504-.188-18.966-11.343-38.436-21.745-58.644-30.718-4.96-2.202-9.986-4.255-15.282-6.511.134 2.987.383 5.511.342 8.027-.107 7.443-4.436 13.188-11.422 14.947-7.39 1.859-13.927.04-19.631-4.994-2.222-1.959-3.034-4.174-2.651-7.221 2.678-21.389 1.718-42.819.288-64.235-1.134-17.081-2.577-34.134-3.61-51.222-.806-13.349-12.913-20.12-24.557-13.496-19.229 10.933-36.732 24.168-52.739 39.409-22.886 21.792-41.865 46.745-59.429 72.893-6.859 10.215-3.188 20.805 3.798 26.799.611.523 1.208 1.06 1.839 1.617-6.631 5.107-17.006 5.376-26.02.208-12.966-7.436-18.691-18.255-14.053-33.497-.846.182-1.383.289-1.906.416-11.403 2.799-22.752 5.833-34.215 8.343-11.98 2.624-24.114 4.047-36.416 2.59-4.356-.516-7.779-2.469-9.188-6.785-1.443-4.429.168-8.134 3.537-11.114 1.194-1.054 2.523-1.96 3.845-2.866 13.443-9.228 28.524-14.671 44.155-18.691 10.342-2.644 20.798-4.839 31.114-7.221zm-206.235 24.221c22.604-18.128 48.409-29.846 73.899-41.215-24.993-26.1-49.892-52.1-75.08-78.409-4.618 17.792-3.752 99.047 1.181 119.624zm94.503 491.315c-14.617-5.953-28.919-11.778-43.335-17.644-1.014 5.275-2.114 10.779-3.121 16.295-1.725 9.51-3.598 19-5.034 28.551-1.872 12.449 3.074 18.53 15.564 20.094 7.342.919 14.644 2.141 21.973 3.188.906.127 1.846.02 3.087.02.873-6.168 1.799-12.188 2.571-18.228 1.409-11.155 1.986-22.504 8.295-32.276zm445.45-21.375c-1.134.201-1.436.181-1.658.302-8.074 4.597-16.168 9.167-24.174 13.872-.779.456-1.47 1.732-1.51 2.658-.45 10.51-.833 21.02-1.081 31.537-.074 3.241.329 6.49.524 9.886h23.859c1.335-19.302 2.671-38.571 4.04-58.255zm-152.879 81.825c5.282 0 10.248-.127 15.201.034 5.04.167 10.074.631 15.268.973 2.759-4.067 5.725-26.41 4.457-34.383-10.054 1.792-20.108 3.564-30.155 5.416-.563.101-1.315.792-1.456 1.336-2.174 8.476-3.772 17.027-3.315 26.624zm-170.309 10.846c5.711.671 10.758 1.121 15.758 1.912 2.806.443 3.886-.704 4.416-3.201 1.443-6.879 3.235-13.691 4.41-20.617.933-5.49 1.168-11.108 1.718-16.732-7.738-1.094-14.96-2.121-22.094-3.127-1.409 13.973-2.792 27.745-4.208 41.765z" fill="#000"/><path d="M388.009 246.162c-10.323 2.383-20.772 4.571-31.108 7.235-15.624 4.02-30.705 9.463-44.154 18.691-1.316.906-2.651 1.806-3.846 2.866-3.369 2.987-4.98 6.691-3.537 11.114 1.41 4.316 4.826 6.269 9.188 6.785 12.302 1.457 24.436.034 36.416-2.59 11.463-2.51 22.812-5.544 34.215-8.343.53-.127 1.06-.234 1.906-.416-4.638 15.235 1.094 26.054 14.054 33.497 9.013 5.168 19.389 4.899 26.02-.208-.631-.557-1.228-1.094-1.839-1.618-6.987-5.993-10.658-16.59-3.799-26.798 17.564-26.155 36.544-51.101 59.43-72.893 16.007-15.241 33.51-28.476 52.738-39.409 11.644-6.618 23.752.154 24.557 13.496 1.034 17.088 2.477 34.141 3.611 51.222 1.423 21.416 2.389 42.846-.289 64.235-.382 3.047.437 5.262 2.651 7.221 5.705 5.034 12.242 6.853 19.631 4.994 6.987-1.759 11.316-7.504 11.423-14.947.04-2.517-.208-5.04-.342-8.027 5.302 2.249 10.329 4.302 15.282 6.511 20.208 8.979 39.677 19.375 58.644 30.718 6.181 3.698 12.429 4.53 18.503.188 6.228-4.457 9.054-10.685 7.94-18.39-.738-5.114-3.819-8.657-8.161-11.235-24.846-14.745-50.483-27.906-77.349-38.604a368.043 368.043 0 00-15.577-5.798c-1.974-.685-2.792-1.658-2.034-4.067 5.121 1.335 10.275 2.597 15.383 4.026 41.187 11.551 79.624 28.893 113.845 54.859 33.718 25.591 60.45 56.907 76.994 96.242 13.55 32.222 18.852 65.812 15.65 100.665-4.671 50.825-25.402 94.617-59.362 132.134-43.302 47.845-96.919 78.483-159.698 93.121-36.597 8.53-73.745 10.932-111.228 9.919-65.235-1.758-128.235-15.067-189.805-36.074-16.188-5.523-32.423-10.866-47.712-18.658-26.007-13.255-45.845-33.201-61.778-57.281-17.967-27.155-29.249-57.088-36.168-88.752-6.134-28.081-8.577-56.497-6.792-85.215 2.483-40.007 12.765-77.584 35.188-111.288 13.825-20.779 31.698-37.249 53.007-50.242 38.476-23.47 79.295-41.215 123.234-51.517 8.222-1.926 16.564-3.376 24.88-4.886.932-.168 2.255.45 3.06 1.114 2.49 2.047 4.825 4.309 7.128 6.403zm222.047 147.081c0-6.484.12-12.873-.034-19.249-.161-6.738-4.409-11.825-10.859-13.389-10.04-2.43-18.222 3.658-18.725 14.228-.396 8.363-.429 16.738-.53 25.114-.02 1.705-.524 2.651-2.161 3.43-24.765 11.792-41.765 30.778-50.853 56.517-7.899 22.389-6.711 44.261 6.645 64.55 10.624 16.127 25.899 25.859 44.355 30.859 1.611.436 2.826.671 2.866 2.94.322 17.872.812 35.738 1.235 53.61.02.732-.08 1.463-.134 2.483-1.101-.261-2.027-.375-2.873-.704-8.04-3.134-16.134-6.148-24.073-9.517-4.658-1.98-9.296-3.577-14.417-3.188-11.637.893-21.161 9.456-23.865 21.43-2.343 10.355 2.261 19.852 12.657 25.892 16.088 9.343 33.323 15.591 51.665 18.665 2.329.389 2.839 1.302 2.886 3.416.201 9.215.55 18.429.839 27.644.161 5.148 2.55 8.752 6.852 10.322 7.342 2.685 14.376-1.792 14.94-9.651.282-3.939.181-7.899.308-11.845.182-5.799.41-11.591.618-17.484 6.389-.469 12.55-.926 18.926-1.396.047.927.094 1.846.148 2.765.617 10.329 1.161 20.658 1.886 30.98.308 4.37 2.979 6.994 6.617 7.041 3.06.04 4.698-1.725 5.483-6.309 2.04-11.946 4.121-23.886 5.9-35.873.402-2.691 1.503-3.704 3.919-4.503 46.416-15.382 80.973-57.691 85.812-105.711 1.98-19.611-3.778-37.061-17.805-51.296-13.531-13.724-30.383-17.986-49.081-16.51-3.322.262-6.617.812-9.933 1.229-.731-7.86 3.275-60.745 4.987-64.108 4.557 2.148 9.369 3.92 13.658 6.544 8.885 5.436 17.55 11.255 26.208 17.067 4.946 3.322 9.637 2.879 13.483-1.644 3.423-4.027 3.819-8.745 1.033-13.282-9.342-15.202-22.255-26.356-38.543-33.537-4.712-2.074-9.638-3.671-14.799-5.611 0-4.087.215-8.416-.054-12.725-.315-5.053-.624-10.174-1.711-15.094-1.168-5.268-6.893-9.04-12.087-8.859-4.873.175-7.92 3.148-9.389 9.262-.571 2.376-1.121 4.758-1.504 7.168-.886 5.53-1.671 11.074-2.45 16.302-9.221.684-18.201 1.322-28.046 2.027zM318.639 608.954c4.698-.45 14.114-.886 23.383-2.322 25.396-3.947 48.369-13.604 68.174-30.269 36.356-30.584 40.571-80.181 9.786-116.281-12.443-14.591-28.282-24.282-46-31.135-7.812-3.02-16.108-4.362-24.088-6.657-33.141-9.551-66.201-9.678-98.926.637-43.577 13.738-69.778 43.322-76.208 88.92-2.812 19.946 2.792 38.228 15.819 53.899 10.503 12.637 24.275 20.617 39.161 26.846 26.92 11.255 55.201 15.651 88.899 16.362zm57.9-259.859c-9.262.04-17.161 3.443-23.356 10.456-9.416 10.665-10.336 25.383-2.517 37.947 6.94 11.161 21.047 16.469 34.551 12.993 16.771-4.316 27.382-21.51 23.275-37.638-1.457-5.731-5.141-9.872-9.188-13.899-6.302-6.282-13.785-9.611-22.765-9.859zm-176.081 9.812c-3.268.752-6.664 1.161-9.778 2.322-11.739 4.369-20.007 16.806-19.101 28.497 1.114 14.349 9.664 25.537 23.517 29.47 5.013 1.422 10.094 1.214 15.114-1.108 6.725-3.107 10.55-8.953 14.483-14.611 1.852-2.657 2.906-6.087 3.53-9.322.53-2.785-.027-5.785-.174-8.691-.799-14.933-12.49-26.027-27.591-26.557zm312.014-129.745c-6.631.134-12.101 4.483-16.323 11.06-6.557 10.195-13.409 20.202-19.859 30.464-2.375 3.771-4.53 7.865-5.785 12.114-1.946 6.57.873 13.362 6.101 16.946 5.55 3.805 12.45 3.846 18.241-.262 2.504-1.772 4.873-3.913 6.813-6.288a1256.087 1256.087 0 0021.738-27.403c2.456-3.188 4.684-6.631 6.49-10.228 6.154-12.296-2.376-26.322-17.416-26.403zm-330.702 41.22c-4.933-20.577-5.805-101.832-1.181-119.624 25.188 26.309 50.087 52.309 75.081 78.409-25.484 11.369-51.296 23.087-73.9 41.215zm94.506 491.316c-6.309 9.772-6.886 21.121-8.295 32.268-.765 6.041-1.692 12.061-2.571 18.229-1.241 0-2.181.114-3.087-.021-7.329-1.047-14.631-2.268-21.973-3.188-12.49-1.563-17.436-7.644-15.564-20.093 1.436-9.558 3.309-19.047 5.034-28.551 1-5.517 2.107-11.02 3.12-16.295l43.336 17.651zm445.449-21.378c-1.369 19.685-2.705 38.953-4.04 58.255h-23.86c-.194-3.396-.597-6.644-.523-9.886.242-10.516.631-21.026 1.08-31.537.041-.926.739-2.201 1.511-2.657 8.013-4.705 16.1-9.275 24.174-13.873.222-.12.524-.1 1.658-.302zm-152.879 81.826c-.463-9.597 1.141-18.147 3.315-26.617.141-.55.893-1.235 1.457-1.336 10.04-1.852 20.1-3.624 30.154-5.416 1.268 7.967-1.698 30.316-4.457 34.383-5.187-.342-10.221-.799-15.268-.973-4.953-.168-9.919-.041-15.201-.041zm-170.311 10.846c1.41-14.02 2.799-27.792 4.202-41.765 7.134 1.013 14.355 2.033 22.093 3.127-.55 5.631-.785 11.242-1.718 16.732-1.174 6.919-2.966 13.738-4.409 20.617-.524 2.497-1.611 3.645-4.416 3.202-4.987-.792-10.04-1.242-15.752-1.913z" fill="#fff"/><path d="M610.054 393.242c9.846-.705 18.826-1.343 28.061-2 .778-5.235 1.563-10.779 2.449-16.302.39-2.41.933-4.792 1.504-7.168 1.469-6.114 4.516-9.094 9.389-9.262 5.195-.181 10.919 3.584 12.087 8.859 1.087 4.92 1.396 10.041 1.712 15.094.268 4.302.053 8.638.053 12.725 5.161 1.94 10.088 3.537 14.799 5.611 16.295 7.181 29.201 18.335 38.544 33.537 2.785 4.537 2.396 9.255-1.034 13.282-3.846 4.523-8.537 4.966-13.483 1.644-8.658-5.812-17.316-11.624-26.208-17.067-4.289-2.624-9.101-4.396-13.658-6.544-1.711 3.363-5.718 56.248-4.987 64.107 3.309-.416 6.611-.966 9.933-1.228 18.692-1.476 35.551 2.786 49.081 16.51 14.027 14.229 19.778 31.678 17.805 51.296-4.839 48.02-39.389 90.329-85.812 105.711-2.416.799-3.517 1.812-3.919 4.503-1.779 11.987-3.859 23.927-5.9 35.873-.785 4.584-2.422 6.349-5.483 6.309-3.637-.047-6.309-2.671-6.617-7.041-.732-10.322-1.269-20.651-1.886-30.979-.054-.92-.094-1.839-.148-2.766-6.376.47-12.53.927-18.926 1.396-.208 5.893-.436 11.685-.617 17.484-.121 3.946-.027 7.912-.309 11.845-.564 7.859-7.598 12.336-14.94 9.651-4.302-1.57-6.691-5.174-6.852-10.322-.289-9.215-.638-18.429-.839-27.644-.047-2.114-.557-3.027-2.886-3.416-18.342-3.074-35.577-9.322-51.664-18.665-10.396-6.04-15-15.537-12.658-25.892 2.705-11.98 12.228-20.544 23.866-21.43 5.12-.389 9.758 1.208 14.416 3.188 7.939 3.376 16.033 6.389 24.074 9.517.845.329 1.771.443 2.872.705.06-1.027.154-1.759.134-2.484-.423-17.872-.912-35.738-1.235-53.61-.04-2.269-1.255-2.511-2.865-2.94-18.457-5-33.739-14.732-44.356-30.859-13.362-20.289-14.55-42.161-6.644-64.55 9.08-25.739 26.087-44.725 50.852-56.517 1.638-.779 2.134-1.725 2.161-3.43.101-8.369.134-16.751.53-25.114.504-10.57 8.685-16.658 18.725-14.228 6.45 1.557 10.705 6.644 10.859 13.389.134 6.349.02 12.738.02 19.222zm26.658 27.684c-7.919.034-15.423 1.349-22.785 3.779-2.087.691-2.866 1.597-2.853 3.939.101 24.638.054 49.282.047 73.92v3.403c7.336-2.477 14.182-4.745 20.967-7.162.59-.208 1.134-1.416 1.174-2.181 1.188-23.194 2.322-46.389 3.437-69.584.094-1.946.013-3.899.013-6.114zm15.638 183.53c11.805-6.845 24.188-21.872 28.953-34.718 2.295-6.181 3.228-12.523 2.765-19.1-.584-8.195-4.792-11.9-12.799-10.537-4.497.765-8.819 2.517-13.262 3.698-1.758.47-2.282 1.382-2.376 3.161-.805 14.933-1.724 29.852-2.597 44.785-.248 4.107-.45 8.215-.684 12.711zm-42.088-46.033c-.469 19.758-.946 39.523-1.436 59.946 5.866-.805 11.235-1.463 16.564-2.369.651-.107 1.483-1.53 1.53-2.389 1.013-17.53 1.933-35.074 2.832-52.611.114-2.195.014-4.396.014-6.497-6.477 1.302-12.799 2.571-19.504 3.92zm-30.798-109.799c-6.591 6.101-11.376 13.161-13.611 21.739-2.577 9.926-.463 18.993 5.235 27.322 2.08 3.033 4.845 5.349 8.369 7.053.007-18.966.007-37.537.007-56.114zM318.639 608.952c-33.704-.712-61.979-5.108-88.899-16.369-14.886-6.229-28.658-14.209-39.161-26.846-13.027-15.671-18.631-33.946-15.819-53.899 6.43-45.598 32.631-75.182 76.208-88.92 32.732-10.315 65.785-10.188 98.926-.637 7.98 2.302 16.276 3.637 24.088 6.657 17.718 6.853 33.557 16.544 46 31.134 30.785 36.101 26.57 85.698-9.786 116.282-19.805 16.665-42.778 26.322-68.174 30.269-9.262 1.443-18.685 1.879-23.383 2.329zm-5.073-46.859c11.55-.094 22.758-1.202 33.644-4.497 13.503-4.087 25.919-10.161 35.611-20.758 6.657-7.282 10.255-15.833 8.704-25.813-.637-4.107-2.543-8.006-3.691-12.053-4.309-15.161-14.993-24.725-28.43-31.416-7.872-3.92-16.342-6.651-24.536-9.94-2.148-.859-4.182-2.208-6.403-2.638-23.027-4.449-45.658-2.872-67.779 5.001-19.067 6.778-32.859 19.355-40.899 37.986-3.228 7.477-4.631 15.302-2.94 23.416 2.443 11.725 10.081 19.255 20.645 23.671 24.382 10.202 49.711 16.517 76.074 17.041zm62.97-212.999c8.973.248 16.456 3.577 22.758 9.852 4.041 4.027 7.732 8.175 9.188 13.899 4.108 16.128-6.503 33.323-23.275 37.638-13.503 3.476-27.611-1.832-34.55-12.993-7.812-12.564-6.9-27.289 2.517-37.947 6.201-7.006 14.1-10.409 23.362-10.449zm-176.081 9.812c15.1.524 26.798 11.624 27.584 26.564.154 2.899.711 5.906.174 8.691-.617 3.235-1.678 6.658-3.53 9.322-3.933 5.658-7.759 11.497-14.483 14.611-5.021 2.322-10.101 2.524-15.114 1.108-13.846-3.927-22.396-15.121-23.517-29.47-.913-11.692 7.362-24.134 19.1-28.497 3.121-1.168 6.517-1.57 9.786-2.329zM512.47 229.16c15.047.081 23.57 14.108 17.409 26.403-1.798 3.597-4.033 7.04-6.49 10.228a1256.087 1256.087 0 01-21.738 27.403c-1.939 2.376-4.308 4.51-6.812 6.288-5.792 4.101-12.691 4.061-18.241.262-5.229-3.584-8.047-10.376-6.101-16.946 1.255-4.242 3.416-8.336 5.785-12.114 6.45-10.262 13.302-20.262 19.859-30.463 4.228-6.578 9.691-10.92 16.329-11.061z" fill="#000"/><path d="M636.712 420.926c0 2.215.08 4.168-.013 6.114a22190.257 22190.257 0 01-3.437 69.584c-.04.772-.584 1.973-1.174 2.181-6.792 2.416-13.631 4.685-20.967 7.161v-3.403c.007-24.637.054-49.282-.047-73.919-.006-2.342.765-3.255 2.853-3.94 7.362-2.429 14.865-3.745 22.785-3.778zm15.636 183.53c.241-4.503.443-8.604.678-12.711.872-14.927 1.791-29.853 2.597-44.786.094-1.778.617-2.698 2.376-3.161 4.436-1.174 8.758-2.933 13.261-3.698 8.014-1.362 12.222 2.343 12.799 10.537.463 6.571-.47 12.92-2.765 19.101-4.758 12.846-17.141 27.872-28.946 34.718zm-42.086-46.032c6.704-1.342 13.033-2.617 19.51-3.912 0 2.094.1 4.302-.014 6.496-.899 17.537-1.825 35.081-2.832 52.611-.047.852-.886 2.275-1.53 2.389-5.329.906-10.698 1.564-16.564 2.369.483-20.429.953-40.194 1.43-59.953zm-30.799-109.799v56.114c-3.523-1.705-6.295-4.02-8.369-7.054-5.698-8.322-7.812-17.396-5.235-27.322 2.229-8.584 7.014-15.644 13.604-21.738zm-265.898 113.47c-26.363-.523-51.691-6.839-76.074-17.033-10.557-4.416-18.201-11.947-20.644-23.671-1.692-8.115-.289-15.947 2.939-23.417 8.047-18.637 21.833-31.208 40.9-37.986 22.127-7.866 44.751-9.45 67.778-5 2.222.429 4.255 1.778 6.403 2.637 8.194 3.289 16.658 6.014 24.537 9.94 13.436 6.691 24.114 16.255 28.429 31.416 1.148 4.047 3.054 7.946 3.692 12.054 1.55 9.98-2.047 18.523-8.705 25.812-9.691 10.604-22.107 16.671-35.611 20.758-10.879 3.289-22.094 4.39-33.644 4.49zm41.658-58.933c-.215-1.503-.235-4.302-1.034-6.859-2.671-8.523-8.087-14.738-16.906-16.966-8.349-2.114-15.698.463-21.362 6.933-5.94 6.792-6.316 14.832-4.141 23.121 1.496 5.711 3.563 11.275 5.013 17 1.604 6.349 5.436 10.201 11.752 11.442 6.812 1.343 13.027-.234 16.973-6.134 5.49-8.201 9.047-17.282 9.705-28.537zm-66.477 3.349c-.174-1.557-.282-2.966-.497-4.355-1.798-11.624-14.369-19.692-25.187-16.188-11.974 3.879-16.571 17.181-10.209 29.147a15.82 15.82 0 011.745 6c.578 7.027 4.41 12.148 10.786 13.92 6.282 1.745 12.933-.604 16.422-6.302 4.175-6.819 6.309-14.376 6.94-22.222z" fill="#fff"/><path d="M355.221 503.16c-.658 11.255-4.215 20.335-9.698 28.543-3.946 5.9-10.154 7.477-16.973 6.135-6.315-1.242-10.148-5.101-11.752-11.443-1.443-5.725-3.51-11.289-5.013-17-2.175-8.289-1.805-16.329 4.141-23.121 5.664-6.47 13.013-9.047 21.362-6.933 8.819 2.228 14.235 8.443 16.906 16.967.792 2.55.812 5.349 1.027 6.852zm-66.477 3.351c-.624 7.839-2.765 15.403-6.939 22.228-3.49 5.698-10.148 8.047-16.423 6.302-6.376-1.771-10.215-6.892-10.785-13.919-.168-2.04-.786-4.195-1.745-6-6.363-11.967-1.759-25.275 10.208-29.148 10.825-3.503 23.396 4.564 25.188 16.188.208 1.389.315 2.792.496 4.349z" fill="#000"/></g><defs><clipPath id="clip0_391_472"><path fill="#fff" transform="translate(89 80)" d="M0 0h781.879v800H0z"/></clipPath></defs></svg>