<svg width="150" height="100" viewBox="0 0 150 100" fill="none" xmlns="http://www.w3.org/2000/svg">
<path d="M103.5 50C103.5 65.1638 90.9883 77.5 75.5 77.5C60.0118 77.5 47.5 65.1638 47.5 50C47.5 34.8362 60.0118 22.5 75.5 22.5C90.9883 22.5 103.5 34.8362 103.5 50Z" stroke="black" stroke-width="3"/>
<line x1="104.685" y1="50.7114" x2="116.711" y2="52.3149" stroke="black" stroke-width="3" stroke-linecap="round"/>
<line x1="79.5" y1="42.5" x2="88.5" y2="42.5" stroke="black" stroke-width="3" stroke-linecap="round"/>
<path d="M67 59.8502L75.5768 60.9232L84.0037 59" stroke="black" stroke-width="3" stroke-linecap="round"/>
<line x1="60.5" y1="42.5" x2="69.5" y2="42.5" stroke="black" stroke-width="3" stroke-linecap="round"/>
<line x1="76.3969" y1="90.6107" x2="75.6107" y2="79.6031" stroke="black" stroke-width="3" stroke-linecap="round"/>
<line x1="62.2666" y1="88.0095" x2="67.0095" y2="77.7334" stroke="black" stroke-width="3" stroke-linecap="round"/>
<line x1="85.5087" y1="23.9364" x2="91.9364" y2="13.4913" stroke="black" stroke-width="3" stroke-linecap="round"/>
<line x1="94.5087" y1="27.9364" x2="100.936" y2="17.4913" stroke="black" stroke-width="3" stroke-linecap="round"/>
<line x1="85.5087" y1="23.9364" x2="91.9364" y2="13.4913" stroke="black" stroke-width="3" stroke-linecap="round"/>
<line x1="100.808" y1="35.0385" x2="110.038" y2="31.1923" stroke="black" stroke-width="3" stroke-linecap="round"/>
<line x1="75.5" y1="11.5" x2="75.5" y2="21.5" stroke="black" stroke-width="3" stroke-linecap="round"/>
<line x1="42.0708" y1="28.5398" x2="50.5398" y2="33.9292" stroke="black" stroke-width="3" stroke-linecap="round"/>
<line x1="34.4035" y1="54.4094" x2="47.4094" y2="53.5965" stroke="black" stroke-width="3" stroke-linecap="round"/>
<line x1="61.9615" y1="12.8077" x2="65.8077" y2="22.0385" stroke="black" stroke-width="3" stroke-linecap="round"/>
<line x1="35.8358" y1="40.9371" x2="47.9371" y2="44.1642" stroke="black" stroke-width="3" stroke-linecap="round"/>
<line x1="36.9487" y1="64.1026" x2="49.1026" y2="60.0513" stroke="black" stroke-width="3" stroke-linecap="round"/>
<line x1="42.4913" y1="73.9364" x2="52.9364" y2="67.5087" stroke="black" stroke-width="3" stroke-linecap="round"/>
<line x1="50.8991" y1="81.8811" x2="58.8811" y2="73.1009" stroke="black" stroke-width="3" stroke-linecap="round"/>
<line x1="84.9385" y1="77.8615" x2="88.8615" y2="88.0615" stroke="black" stroke-width="3" stroke-linecap="round"/>
<line x1="91.1108" y1="74.2111" x2="98.2111" y2="82.8892" stroke="black" stroke-width="3" stroke-linecap="round"/>
<line x1="99.1" y1="68.7" x2="108.7" y2="75.9" stroke="black" stroke-width="3" stroke-linecap="round"/>
<line x1="101.854" y1="59.9698" x2="112.97" y2="63.1456" stroke="black" stroke-width="3" stroke-linecap="round"/>
<line x1="103.733" y1="44.0095" x2="114.009" y2="39.2666" stroke="black" stroke-width="3" stroke-linecap="round"/>
<line x1="59.1252" y1="27.5368" x2="51.7434" y2="18.1057" stroke="black" stroke-width="3" stroke-linecap="round"/>
</svg>
